# xmcd CD database file
#
# Track frame offsets:
#	150
#	14394
#	30291
#	45103
#	53741
#	67741
#	81084
#	93827
#	106765
#	119883
#	132622
#	145310
#	157756
#	171472
#	183210
#	196268
#	206204
#	214861
#	225600
#	237031
#	250788
#	265466
#
# Disc length: 3715 seconds
#
# Revision: 0
# Processed by: cddbd v1.5.1PL0 Copyright (c) Steve Scherf et al.
# Submitted via: CDex 1.51
#
DISCID=270e8116
DTITLE=SIDNEY BECHET - RCA - Victor, Master takes, Disco 2
DYEAR=2003
DGENRE=Jazz
TTITLE0=Wild man blues
TTITLE1=Nobody knows the way I feel
TTITLE2=Make me a pallet on the floor
TTITLE3=Shake it and break it
TTITLE4=St. Louis blues
TTITLE5=Blues in thirds
TTITLE6=Blue for you Jhonny
TTITLE7=Ain't Misbehavin'
TTITLE8=Save it pretty Mama
TTITLE9=Stompy Jones
TTITLE10=Muskrat ramble
TTITLE11=Coal black shine
TTITLE12=Egyptian fantasy
TTITLE13=Baby, won't you please come home
TTITLE14=Slippin' and slidin'
TTITLE15=The Sheik of Araby
TTITLE16=Blues of Bechet
TTITLE17=Swing Parede
TTITLE18=I konw that you know
TTITLE19=When it's sleepy time down south
TTITLE20=I aint't gonna give nobody none of this Jelly Roll
TTITLE21=Blue for you Johnny
EXTD=YEAR: 2003
EXTT0=
EXTT1=
EXTT2=
EXTT3=
EXTT4=
EXTT5=
EXTT6=
EXTT7=
EXTT8=
EXTT9=
EXTT10=
EXTT11=
EXTT12=
EXTT13=
EXTT14=
EXTT15=
EXTT16=
EXTT17=
EXTT18=
EXTT19=
EXTT20=
EXTT21=
PLAYORDER=
